<?xml version="1.0" encoding="utf-8"?>
<!-- Generator: Adobe Illustrator 18.1.0, SVG Export Plug-In . SVG Version: 6.00 Build 0)  -->
<svg version="1.1" id="Layer_1" xmlns="http://www.w3.org/2000/svg" xmlns:xlink="http://www.w3.org/1999/xlink" x="0px" y="0px"
	 viewBox="0 0 34 34" style="enable-background:new 0 0 34 34;" xml:space="preserve">
<g>
	<path style="fill:#622E89;" d="M17.2,33.8c-0.2,0-0.3-0.1-0.4-0.2L6.2,23.4c-0.2-0.2-0.2-0.6,0-0.9c0.2-0.2,0.6-0.2,0.9,0l10.1,9.8
		l9.3-9.2c0.2-0.2,0.6-0.2,0.9,0c0.2,0.2,0.2,0.6,0,0.9l-9.8,9.7C17.5,33.7,17.4,33.8,17.2,33.8z"/>
</g>
<g>
	<path style="fill:#622E89;" d="M17.2,33c-0.3,0-0.6-0.3-0.6-0.6V0.8c0-0.3,0.3-0.6,0.6-0.6s0.6,0.3,0.6,0.6v31.6
		C17.9,32.8,17.6,33,17.2,33z"/>
</g>
</svg>
