<?xml version="1.0" encoding="utf-8"?>
<!-- Generator: Adobe Illustrator 22.1.0, SVG Export Plug-In . SVG Version: 6.00 Build 0)  -->
<svg version="1.1" id="Layer_1" xmlns="http://www.w3.org/2000/svg" xmlns:xlink="http://www.w3.org/1999/xlink" x="0px" y="0px"
	 viewBox="0 0 47 43.3" style="enable-background:new 0 0 47 43.3;" xml:space="preserve">
<style type="text/css">
	.st0{clip-path:url(#SVGID_2_);fill:#CFD4D8;}
</style>
<g>
	<defs>
		<rect id="SVGID_1_" y="0" width="47" height="43.3"/>
	</defs>
	<clipPath id="SVGID_2_">
		<use xlink:href="#SVGID_1_"  style="overflow:visible;"/>
	</clipPath>
	<path class="st0" d="M3.5,43.3c-1,0-2-0.4-2.6-1.2c-1.3-1.5-1.1-3.7,0.4-4.9l17.9-15.5L1.2,6.1c-1.5-1.3-1.6-3.5-0.4-4.9
		c1.3-1.5,3.5-1.6,4.9-0.4L26.7,19c0.8,0.7,1.2,1.6,1.2,2.6s-0.4,2-1.2,2.6L5.8,42.4C5.1,43,4.3,43.3,3.5,43.3"/>
	<path class="st0" d="M22.6,43.3c-1,0-2-0.4-2.6-1.2c-1.3-1.5-1.1-3.7,0.4-4.9l17.9-15.5L20.3,6.1c-1.5-1.3-1.6-3.5-0.4-4.9
		c1.3-1.5,3.5-1.6,4.9-0.4L45.8,19c0.8,0.7,1.2,1.6,1.2,2.6s-0.4,2-1.2,2.6L24.9,42.4C24.2,43,23.4,43.3,22.6,43.3"/>
</g>
</svg>
