<?xml version="1.0" encoding="utf-8"?>
<!-- Generator: Adobe Illustrator 18.1.0, SVG Export Plug-In . SVG Version: 6.00 Build 0)  -->
<svg version="1.1" id="Layer_1" xmlns="http://www.w3.org/2000/svg" xmlns:xlink="http://www.w3.org/1999/xlink" x="0px" y="0px"
	 viewBox="0 0 34 34" style="enable-background:new 0 0 34 34;" xml:space="preserve">
<g>
	<g>
		<path style="fill:#FFFFFF;" d="M8.6,33.7l5-8.3C5.9,24.2,0.3,19,0.3,13C0.3,6,7.8,0.3,17,0.3C26.2,0.3,33.7,6,33.7,13
			c0,5.2-4.1,9.8-10.5,11.8L8.6,33.7z M17,1.6C8.5,1.6,1.6,6.7,1.6,13c0,5.6,5.7,10.4,13.2,11.2l1,0.1l-3.2,5.4l10.1-6.2
			c5.9-1.7,9.6-5.9,9.6-10.5C32.4,6.7,25.5,1.6,17,1.6z"/>
	</g>
</g>
</svg>
