<svg xmlns="http://www.w3.org/2000/svg" width="331.434" height="78.5098" viewBox="0 0 331.434 78.5098">
  <title>logo-no-tagline</title>
  <g id="Layer_2" data-name="Layer 2">
    <g id="Layer_1-2" data-name="Layer 1">
      <g>
        <g>
          <path d="M63.1074,39.1719A14.3091,14.3091,0,1,1,48.7988,24.8613,14.31,14.31,0,0,1,63.1074,39.1719Z" fill="#6e298d"/>
          <path d="M48.748,70.8984A31.7764,31.7764,0,1,1,71.6953,17.1523,39.2547,39.2547,0,1,0,39.2539,78.51c13.8652,0,25.3984-6.3985,32.3808-17.25C65.8222,67.666,58.0839,70.8984,48.748,70.8984Z" fill="#005daa"/>
        </g>
        <g>
          <path d="M249.5649,30.9414a3.6426,3.6426,0,0,0-2.7383-1.1367H237.5v7.76h9.3262a3.8185,3.8185,0,0,0,3.8574-3.8594A3.7611,3.7611,0,0,0,249.5649,30.9414Z" fill="none"/>
          <path d="M328.4126,26.8145V31.127a11.7191,11.7191,0,0,0-9.3907-4.3165A12.39,12.39,0,0,0,306.604,39.2246a12.3539,12.3539,0,0,0,12.4179,12.4492,11.7376,11.7376,0,0,0,9.3907-4.3008v4.3321h3.0214V26.8145ZM319.02,29.8379a9.3724,9.3724,0,0,1,9.3926,9.3769,9.3926,9.3926,0,1,1-16.0411-6.6328A9.0954,9.0954,0,0,1,319.02,29.8379Z" fill="#005daa"/>
          <path d="M293.5376,26.8145a9.8841,9.8841,0,0,0-7.4551,3.1542V26.7832H283.1v24.918h2.9824V37.2773a7.4029,7.4029,0,0,1,7.457-7.4824,7.4355,7.4355,0,0,1,7.4141,7.4824V51.7012h2.9843V37.2852a10.1747,10.1747,0,0,0-3.0351-7.4063A10.0175,10.0175,0,0,0,293.5376,26.8145Z" fill="#005daa"/>
          <path d="M139.9882,41.2383a7.4,7.4,0,0,1-7.457,7.48,7.4389,7.4389,0,0,1-7.4141-7.48V26.7832h-2.9843V41.2305a10.1776,10.1776,0,0,0,3.0351,7.4062,10.0188,10.0188,0,0,0,7.3692,3.0645,9.8685,9.8685,0,0,0,7.4511-3.1543v3.1543h2.9844V26.7832h-2.9844Z" fill="#005daa"/>
          <path d="M101.0507,33.791a6.7743,6.7743,0,0,0-2.0283-4.916A6.6652,6.6652,0,0,0,94.1289,26.82h-13.41V51.7129H94.041A6.7718,6.7718,0,0,0,99.0224,49.66a6.8821,6.8821,0,0,0,2.0283-5,6.5494,6.5494,0,0,0-2.6074-5.4375A6.5946,6.5946,0,0,0,101.0507,33.791Zm-6.92,3.9063H83.7382V29.8418H94.1308A3.7114,3.7114,0,0,1,96.9,30.99a3.8134,3.8134,0,0,1,1.1309,2.8008,3.8617,3.8617,0,0,1-3.9,3.9063Zm-.084,10.9375H83.7382v-7.918H94.1308a3.7188,3.7188,0,0,1,2.77,1.1465,3.9719,3.9719,0,0,1-2.8535,6.7715Z" fill="#005daa"/>
          <polygon points="107.055 26.789 104.074 26.789 104.074 51.699 121.117 51.699 121.117 48.656 107.055 48.656 107.055 26.789" fill="#005daa"/>
          <path d="M158.4541,26.82A12.3656,12.3656,0,0,0,146.0214,39.26a12.3688,12.3688,0,0,0,12.4327,12.4394c4.664,0,8.3759-2.2539,11.0322-6.7031l.1777-.2988-2.6308-1.5391-.1758.291c-2.1035,3.4824-4.8516,5.1738-8.4033,5.1738a9.1624,9.1624,0,0,1-6.2608-2.3554,9.0459,9.0459,0,0,1-3.0166-5.5274H170.85V39.248A12.4,12.4,0,0,0,158.4541,26.82Zm-6.2393,5.3711a9.1924,9.1924,0,0,1,6.2393-2.3516,9.3629,9.3629,0,0,1,9.2334,7.8829H149.1767A9.0013,9.0013,0,0,1,152.2148,32.1914Z" fill="#005daa"/>
          <path d="M201.6411,43.4824c-2.0762,3.4-4.91,5.1231-8.42,5.1231a9.3021,9.3021,0,0,1-9.393-9.3789,9.3739,9.3739,0,0,1,9.393-9.3809c3.504,0,6.2461,1.6582,8.3809,5.0762l.1836.2929,2.5391-1.6035-.18-.291c-2.6621-4.3125-6.336-6.5-10.9219-6.5a12.3916,12.3916,0,0,0-12.4185,12.416,12.3509,12.3509,0,0,0,12.4185,12.4551c4.6426,0,8.3477-2.24,11.0117-6.66l.18-.2988-2.5957-1.541Z" fill="#005daa"/>
          <path d="M219.2055,26.82a12.3506,12.3506,0,0,0-12.42,12.4258,12.3975,12.3975,0,1,0,21.1758-8.7852A11.9282,11.9282,0,0,0,219.2055,26.82Zm0,21.7793a9.1551,9.1551,0,0,1-6.6679-2.7207,9.4543,9.4543,0,0,1,.0019-13.3066,9.3713,9.3713,0,0,1,16.0254,6.666A9.28,9.28,0,0,1,219.2055,48.6Z" fill="#6e298d"/>
          <path d="M246.8032,40.5449A6.8514,6.8514,0,0,0,251.6586,28.85a6.5735,6.5735,0,0,0-4.8339-2.0293H234.52V51.6992h2.98V40.5449h5.5118l7.791,11.1446h3.623l-7.7871-11.1446Zm.0234-2.98H237.5v-7.76h9.3262a3.6426,3.6426,0,0,1,2.7383,1.1367,3.7611,3.7611,0,0,1,1.1191,2.7637,3.8185,3.8185,0,0,1-3.8574,3.8594Z" fill="#005daa"/>
          <path d="M267.7036,26.82A12.3639,12.3639,0,0,0,255.2719,39.26a12.41,12.41,0,1,0,21.2012-8.795A11.9579,11.9579,0,0,0,267.7036,26.82Zm0,21.8027A9.1533,9.1533,0,0,1,261.03,45.9a9.4713,9.4713,0,0,1,0-13.3223,9.3841,9.3841,0,0,1,16.045,6.6739,9.2967,9.2967,0,0,1-9.3711,9.371Z" fill="#005daa"/>
        </g>
      </g>
    </g>
  </g>
</svg>
