<?xml version="1.0" encoding="utf-8"?>
<!-- Generator: Adobe Illustrator 22.1.0, SVG Export Plug-In . SVG Version: 6.00 Build 0)  -->
<svg version="1.1" id="Layer_1" xmlns="http://www.w3.org/2000/svg" xmlns:xlink="http://www.w3.org/1999/xlink" x="0px" y="0px"
	 viewBox="0 0 331.4 78.5" style="enable-background:new 0 0 331.4 78.5;" xml:space="preserve">
<style type="text/css">
	.st0{fill:#FEFDFF;}
	.st1{fill:#FDFEFF;}
	.st2{fill:none;}
	.st3{fill:#FFFFFF;}
</style>
<title>logo-no-tagline</title>
<g>
	<g>
		<path class="st0" d="M63.1,39.2c0,7.9-6.4,14.3-14.3,14.3s-14.3-6.4-14.3-14.3c0-7.9,6.4-14.3,14.3-14.3
			C56.7,24.9,63.1,31.3,63.1,39.2z"/>
		<path class="st1" d="M48.7,70.9C31.2,70.9,17,56.7,17,39.1S31.2,7.4,48.7,7.3c8.7,0,17,3.5,23,9.8C59.5-0.8,35.1-5.4,17.2,6.8
			S-5.4,43.4,6.8,61.4c7.3,10.7,19.5,17.2,32.4,17.2c13.9,0,25.4-6.4,32.4-17.2C65.8,67.7,58.1,70.9,48.7,70.9z"/>
	</g>
	<path class="st2" d="M249.6,30.9c-0.7-0.8-1.7-1.2-2.7-1.1h-9.3v7.8h9.3c2.1,0,3.8-1.7,3.9-3.8c0,0,0-0.1,0-0.1
		C250.7,32.7,250.3,31.7,249.6,30.9z"/>
	<path class="st3" d="M328.4,26.8v4.3c-2.3-2.8-5.8-4.4-9.4-4.3c-6.8,0-12.4,5.5-12.4,12.4c0,0,0,0,0,0.1
		c-0.1,6.8,5.4,12.4,12.3,12.4c0.1,0,0.1,0,0.2,0c3.6,0.1,7.1-1.5,9.4-4.3v4.3h3V26.8H328.4z M319,29.8c5.2,0,9.4,4.2,9.4,9.4
		c0,0,0,0,0,0c0,5.2-4.2,9.4-9.4,9.4c-5.2,0-9.4-4.2-9.4-9.4c0-2.5,1-4.9,2.7-6.6C314.1,30.8,316.5,29.8,319,29.8z"/>
	<path class="st3" d="M293.5,26.8c-2.8-0.1-5.5,1.1-7.5,3.2v-3.2h-3v24.9h3V37.3c0-4.1,3.2-7.4,7.3-7.5c0,0,0.1,0,0.1,0
		c4.1,0,7.4,3.4,7.4,7.5c0,0,0,0,0,0v14.4h3V37.3c0-2.8-1.1-5.5-3-7.4C299,27.9,296.3,26.8,293.5,26.8z"/>
	<path class="st3" d="M140,41.2c0,4.1-3.2,7.4-7.3,7.5c0,0-0.1,0-0.1,0c-4.1,0-7.4-3.4-7.4-7.5c0,0,0,0,0,0V26.8h-3v14.4
		c0,2.8,1.1,5.5,3,7.4c1.9,2,4.6,3.1,7.4,3.1c2.8,0.1,5.5-1.1,7.5-3.2v3.2h3V26.8h-3V41.2z"/>
	<path class="st3" d="M101.1,33.8c0-1.8-0.7-3.6-2-4.9c-1.3-1.3-3-2.1-4.9-2.1H80.7v24.9H94c1.9,0,3.7-0.7,5-2.1
		c1.3-1.3,2.1-3.1,2-5c0.1-2.1-0.9-4.2-2.6-5.4C100.1,37.9,101.1,35.9,101.1,33.8z M94.1,37.7H83.7v-7.9h10.4c1,0,2,0.4,2.8,1.1
		c0.7,0.7,1.2,1.8,1.1,2.8C98.1,35.9,96.3,37.7,94.1,37.7C94.2,37.7,94.2,37.7,94.1,37.7L94.1,37.7z M94,48.6H83.7v-7.9h10.4
		c1,0,2,0.4,2.8,1.1c1.5,1.6,1.5,4.1,0,5.6C96.1,48.2,95.1,48.6,94,48.6L94,48.6z"/>
	<polygon class="st3" points="107.1,26.8 104.1,26.8 104.1,51.7 121.1,51.7 121.1,48.7 107.1,48.7 	"/>
	<path class="st3" d="M158.5,26.8c-6.8,0-12.4,5.5-12.4,12.3c0,0,0,0.1,0,0.1c0,6.8,5.5,12.4,12.3,12.4c0,0,0.1,0,0.1,0
		c4.7,0,8.4-2.3,11-6.7l0.2-0.3l-2.6-1.5l-0.2,0.3c-2.1,3.5-4.9,5.2-8.4,5.2c-2.3,0-4.5-0.8-6.3-2.4c-1.6-1.4-2.7-3.4-3-5.5h21.7
		v-1.5C170.9,32.4,165.3,26.8,158.5,26.8C158.5,26.8,158.5,26.8,158.5,26.8z M152.2,32.2c1.7-1.5,3.9-2.4,6.2-2.4
		c4.6,0,8.5,3.3,9.2,7.9h-18.5C149.5,35.6,150.6,33.6,152.2,32.2L152.2,32.2z"/>
	<path class="st3" d="M201.6,43.5c-2.1,3.4-4.9,5.1-8.4,5.1c-5.1,0.1-9.3-4.1-9.4-9.2c0-0.1,0-0.1,0-0.2c0-5.2,4.2-9.4,9.4-9.4
		c0,0,0,0,0,0c3.5,0,6.2,1.7,8.4,5.1l0.2,0.3l2.5-1.6l-0.2-0.3c-2.7-4.3-6.3-6.5-10.9-6.5c-6.8,0-12.4,5.5-12.4,12.4c0,0,0,0,0,0.1
		c-0.1,6.8,5.4,12.4,12.2,12.5c0.1,0,0.1,0,0.2,0c4.6,0,8.3-2.2,11-6.7l0.2-0.3l-2.6-1.5L201.6,43.5z"/>
	<path class="st3" d="M219.2,26.8c-6.8,0-12.4,5.5-12.4,12.3c0,0,0,0.1,0,0.1c0,6.8,5.6,12.4,12.4,12.4c6.8,0,12.4-5.6,12.4-12.4
		c0-3.3-1.3-6.4-3.6-8.7C225.7,28.1,222.5,26.8,219.2,26.8z M219.2,48.6c-2.5,0-4.9-0.9-6.7-2.7c-3.6-3.7-3.6-9.6,0-13.3
		c3.6-3.7,9.6-3.7,13.3-0.1c1.8,1.8,2.8,4.2,2.8,6.7c0,5.1-4.1,9.3-9.2,9.4C219.3,48.6,219.3,48.6,219.2,48.6L219.2,48.6z"/>
	<path class="st3" d="M246.8,40.5c3.8,0,6.9-3.1,6.9-6.8c0-1.8-0.7-3.6-2-4.9c-1.3-1.3-3-2.1-4.8-2h-12.3v24.9h3V40.5h5.5l7.8,11.1
		h3.6l-7.8-11.1H246.8z M246.8,37.6h-9.3v-7.8h9.3c1,0,2,0.4,2.7,1.1c0.7,0.7,1.1,1.7,1.1,2.8C250.7,35.8,249,37.5,246.8,37.6
		C246.9,37.6,246.9,37.6,246.8,37.6L246.8,37.6z"/>
	<path class="st3" d="M267.7,26.8c-6.8,0-12.4,5.5-12.4,12.3c0,0,0,0.1,0,0.1c0,6.9,5.6,12.4,12.4,12.4c6.9,0,12.4-5.6,12.4-12.4
		c0-3.3-1.3-6.4-3.6-8.7C274.2,28.1,271,26.8,267.7,26.8z M267.7,48.6c-2.5,0-4.9-0.9-6.7-2.7c-3.7-3.7-3.7-9.6,0-13.3
		c3.7-3.7,9.6-3.7,13.3-0.1c1.8,1.8,2.8,4.2,2.8,6.7c0,5.1-4.1,9.3-9.2,9.4C267.8,48.6,267.8,48.6,267.7,48.6L267.7,48.6z"/>
</g>
</svg>
